<svg xmlns="http://www.w3.org/2000/svg" viewBox="0 0 933.02 646.24"><defs><style>.cls-1{fill:#d7b73f;}.cls-2{fill:#231f20;}.cls-3{fill:none;stroke:#231f20;stroke-miterlimit:10;}.cls-4{fill:#f9ed32;}</style></defs><title>Asset 4</title><g id="Layer_2" data-name="Layer 2"><g id="Layer_1-2" data-name="Layer 1"><path class="cls-1" d="M921.71,150.62c-6,.79-12.65,2.59-15.66,8.38a9.59,9.59,0,0,0-.76,7.74c1.14,2.88,3.77,4.14,6.43,5.28s4.34,3.31,7.55,3a8.76,8.76,0,0,0,7.05-5.53c1.13-2.62,1.85-6,.73-8.76-1.29-3.13-3.81-3.56-6.68-4.46l.3,6.5-2.64.36c2.45.3,5.21-.43,6.53-2.71,1.05-1.81.41-4.49-2-4.79-2.62-.32-4.94-.11-7.07,1.64-2.37,2-3.37,5.34.31,6.5,1.06.33,1.61.13,2.12,1.09.64,1.21-.85,2.7-.73,3.83q7,.07,3.83-1.86a6.72,6.72,0,0,0-1.5-1c-1.08-.59-2.3-.87-3.37-1.46-1.74-1-2.48-2.86-.85-4.49s4.71-1.49,6.65-1.75c5.62-.74,6.23-8.4-.26-7.54Z"/><path class="cls-1" d="M683.1,121.59A20.69,20.69,0,0,0,675,137.22c-.18,5.93,3.83,14.08,11,12.06,5.52-1.55,8.68-10.24,8.82-15.39a15.79,15.79,0,0,0-10.19-14.95c-6-2.27-8.62,6.51-3.08,8.6,2.14.8,3.76,2,4,4.41.29,2.91-1.73,4.68-2.52,7.21l-.6.91c1.31,0,1.9-.55,1.78-1.52.36-.86.24-2.08.56-3a12.4,12.4,0,0,1,4.3-5.91c4.52-3.56-1.45-11.58-6-8Z"/><path class="cls-1" d="M644,3.52c-5.67-2-12.18-1-16.09,3.93-3.14,3.92-4.27,10.73.46,14s11.34.07,12.43-5.33c1.17-5.76-.86-13.22-8.09-11.54-6.94,1.62-6.09,9.48-5.4,15.08s4.52,9.67,10.53,8.77c13-2,10.84-20.09,1.61-25.37-2.46-1.41-7.27-.11-8,2.86-1.43,5.87-3.32,17.1,4.82,18.7,2.21.44,6.47-.38,6.91-3.21a50.63,50.63,0,0,0,.51-10.93c-.28-4.46-10.15-3-9.87,1.65a41.26,41.26,0,0,1-.45,9.09L640.25,18c1.07.21.24-.11.14-1.12a30.11,30.11,0,0,1-.21-3.29,32.05,32.05,0,0,1,1-7.49l-8,2.85c1.75,1,2.65,3,3.18,4.89a18.9,18.9,0,0,1,.49,2.49c.16,1.18-.45,3.37-.13,4.28-.56,1-.11,1.3,1.34.88l-.48-1c-.08-1-.45-2-.55-3a43.66,43.66,0,0,1-.22-4.43V11.56q.89-3.13-1.13-.85l-3.86.3.76.19L630,9.58c1,1.13,1.09,3,1.09,4.48L631,15.88q-1.22,3.39,4.61.16a2.54,2.54,0,0,1-.5-1.67,3.91,3.91,0,0,1,.16-1.76c.2-.88,1.16-3.68,2.56-3.19,2.27.79,5.17.64,7-1.17,1.45-1.46,1.42-4-.79-4.73Z"/><path class="cls-2" d="M72.58,525.7a.9.9,0,0,1,1,1,1,1,0,0,1-1.14,1.15H46.92a1.11,1.11,0,0,1-.76-.38,16.38,16.38,0,0,1-2-3.45l-4.59-9c-1.19-2.46-2.45-5-3.76-7.65s-2.58-5.1-3.77-7.4H27.67v16.58q0,4.47,1.34,6.19a13.49,13.49,0,0,0,3.63,3.12.82.82,0,0,1,.64,1.15,1.1,1.1,0,0,1-1.15.89H4.34a1.14,1.14,0,0,1-1-.64,1.07,1.07,0,0,1,0-1,.22.22,0,0,1,.25-.25,35.93,35.93,0,0,0,3.25-3.38,8.71,8.71,0,0,0,1.6-3.38c.08-.51.14-1.83.19-4s.08-4.81.13-8,.08-6.9.12-11,.07-8.41.07-12.88V457.23c0-2.8-.09-5.08-.26-6.82a19.08,19.08,0,0,0-.83-4.27,6.85,6.85,0,0,0-1.59-2.68,12.28,12.28,0,0,0-2.55-1.91,1.12,1.12,0,0,1-.51-1.15,1.09,1.09,0,0,1,1.15-.89H33.72A75.26,75.26,0,0,1,49.18,441a20.26,20.26,0,0,1,9.33,4.66,18.88,18.88,0,0,1,5.37,9.18,58.21,58.21,0,0,1,1.66,15.43q0,13.38-3.59,19.76-3.35,5.87-10.79,8.16l12.62,20.4a19.07,19.07,0,0,0,2.62,3.38A15,15,0,0,0,69,524a12.93,12.93,0,0,0,2.17,1.15A10.47,10.47,0,0,0,72.58,525.7ZM27.67,483.62h6a32.48,32.48,0,0,0,7.08-.57,7.52,7.52,0,0,0,3.63-1.85,7.41,7.41,0,0,0,1.92-3.89,37.36,37.36,0,0,0,.51-7.07,52.63,52.63,0,0,0-.39-6.95,8.62,8.62,0,0,0-1.78-4.53,6.62,6.62,0,0,0-3.57-2.23,25.39,25.39,0,0,0-6.76-.7H27.67Z"/><path class="cls-2" d="M139.41,504.28a.9.9,0,0,1,.38,1.27l-7.65,21.55a1,1,0,0,1-1,.77H82a1.1,1.1,0,0,1-1.15-.89,1.14,1.14,0,0,1,.51-1.15,12.67,12.67,0,0,0,2.55-1.92,6.85,6.85,0,0,0,1.59-2.68,18.52,18.52,0,0,0,.83-4.28q.26-2.61.26-6.83v-53q0-4.22-.26-6.83a18.63,18.63,0,0,0-.83-4.28,6.85,6.85,0,0,0-1.59-2.68,12.67,12.67,0,0,0-2.55-1.92,1.14,1.14,0,0,1-.51-1.15,1.1,1.1,0,0,1,1.15-.89l47.43.13a16.79,16.79,0,0,0,2.55-.13,8,8,0,0,0,1.91-.64.86.86,0,0,1,1,.13,1.09,1.09,0,0,1,.51.89v19.89a1,1,0,0,1-.63,1,1.16,1.16,0,0,1-1.28-.25A22,22,0,0,0,129,457a12.38,12.38,0,0,0-5.74-1.14H105.36v19.38h18.11a4.51,4.51,0,0,0,1.34-.19c.38-.13.91-.32,1.59-.58a.88.88,0,0,1,1,.13.91.91,0,0,1,.51.89v18c0,.6-.26.94-.76,1a.5.5,0,0,1-.58.13,1.63,1.63,0,0,1-.57-.38,7.15,7.15,0,0,0-3.19-2.55,18.83,18.83,0,0,0-6.38-.77H105.36v20.66l8-.13A70.86,70.86,0,0,0,121,511a40.38,40.38,0,0,0,6.38-1.21,31.21,31.21,0,0,0,5.55-2.17,30.61,30.61,0,0,0,5.16-3.38A1.15,1.15,0,0,1,139.41,504.28Z"/><path class="cls-2" d="M220.9,440.4a.87.87,0,0,1-.51,1.15c-1.11.68-2.09,1.33-2.94,2a18.17,18.17,0,0,0-2.29,2,12.82,12.82,0,0,0-1.79,2.43,25.78,25.78,0,0,0-1.53,3.25L192.08,527c0,.59-.34.89-1,.89H173.59a1,1,0,0,1-1-.89l-19-74.6a15,15,0,0,0-1.59-4.14,14,14,0,0,0-2.11-2.74,13.24,13.24,0,0,0-2.61-2l-3.12-1.91a1,1,0,0,1-.51-1.28c.08-.51.46-.76,1.14-.76l29.2.12a1,1,0,0,1,1,.77,1,1,0,0,1-.51,1.27,17.51,17.51,0,0,0-3.25,2,2.5,2.5,0,0,0-.44,1.66V446l11.34,52.92,8.42-38.13c.25-1.28.53-2.74.83-4.4s.57-3.23.83-4.72.46-2.78.63-3.89a20.4,20.4,0,0,0,.26-2,2.56,2.56,0,0,0-.51-1.65,17.52,17.52,0,0,0-3.57-2.43,1,1,0,0,1-.51-1.27c.08-.51.42-.77,1-.77h30.35A1,1,0,0,1,220.9,440.4Z"/><path class="cls-2" d="M281.69,446.9a24.26,24.26,0,0,1,4.33,9.44,62.37,62.37,0,0,1,1.4,14.53V496.5A62.47,62.47,0,0,1,286,511a24.22,24.22,0,0,1-4.33,9.43A19,19,0,0,1,274,526a42.86,42.86,0,0,1-12.12,2.55,21,21,0,0,1-2.61.12h-7.08a18.67,18.67,0,0,1-2.55-.12A42.71,42.71,0,0,1,237.57,526a18.83,18.83,0,0,1-7.65-5.49,24.22,24.22,0,0,1-4.34-9.43,63,63,0,0,1-1.4-14.54V470.87a62.92,62.92,0,0,1,1.4-14.53,24.27,24.27,0,0,1,4.34-9.44,18.72,18.72,0,0,1,7.65-5.48,42.36,42.36,0,0,1,12.11-2.55,18.25,18.25,0,0,1,2.55-.13h7.08a20.61,20.61,0,0,1,2.61.13A42.52,42.52,0,0,1,274,441.42,18.86,18.86,0,0,1,281.69,446.9Zm-13.45,16.58a11.49,11.49,0,0,0-1.79-5,7.67,7.67,0,0,0-3.89-2.81,21.1,21.1,0,0,0-6.76-.89,21.58,21.58,0,0,0-6.88.89,7.67,7.67,0,0,0-3.89,2.81,10.87,10.87,0,0,0-1.72,5,59.59,59.59,0,0,0-.39,7.39V496.5a59.76,59.76,0,0,0,.39,7.4,10.91,10.91,0,0,0,1.72,5,7.67,7.67,0,0,0,3.89,2.81,21.58,21.58,0,0,0,6.88.89,23.11,23.11,0,0,0,6.89-.83,7.34,7.34,0,0,0,3.89-2.74,11,11,0,0,0,1.72-5,63.12,63.12,0,0,0,.38-7.52V470.87A53.41,53.41,0,0,0,268.24,463.48Z"/><path class="cls-2" d="M357.53,504.28a.88.88,0,0,1,.39,1.15l-6,21.42a1,1,0,0,1-1,.76l-51.13.26a1.09,1.09,0,0,1-1.14-.89,1.12,1.12,0,0,1,.51-1.15,12.56,12.56,0,0,0,2.55-1.91,6.92,6.92,0,0,0,1.59-2.68,19.2,19.2,0,0,0,.83-4.27c.17-1.74.25-4,.25-6.82v-57q0-5.61-1.21-7.84a9.74,9.74,0,0,0-3.89-3.76.86.86,0,0,1-.51-1.15c.17-.6.51-.89,1-.89H327.7a1.09,1.09,0,0,1,1.14.89.82.82,0,0,1-.63,1.15,12,12,0,0,0-2.49,1.85,6.66,6.66,0,0,0-1.53,2.61,19.34,19.34,0,0,0-.83,4.33q-.25,2.69-.25,6.89v54.32l8.41-.13a70.86,70.86,0,0,0,7.65-.38,40.38,40.38,0,0,0,6.38-1.21,30.81,30.81,0,0,0,5.54-2.17,30.28,30.28,0,0,0,5.17-3.38A1.13,1.13,0,0,1,357.53,504.28Z"/><path class="cls-2" d="M436.84,440.4a.86.86,0,0,1-.51,1.15,11.49,11.49,0,0,0-2.42,1.72,6.61,6.61,0,0,0-1.6,2.42,15.23,15.23,0,0,0-.82,3.76,50.8,50.8,0,0,0-.26,5.74v41.57a62.92,62.92,0,0,1-1.4,14.53,24.27,24.27,0,0,1-4.34,9.44,18.72,18.72,0,0,1-7.65,5.48,42,42,0,0,1-12.11,2.55l-1.08.07c-.64,0-1.68.06-3.13.06h-2.17a8.4,8.4,0,0,1-1.53-.13,41.58,41.58,0,0,1-12.17-2.55,18.79,18.79,0,0,1-7.59-5.48,24.12,24.12,0,0,1-4.33-9.44,62.31,62.31,0,0,1-1.41-14.53v-41.7a51.82,51.82,0,0,0-.25-5.67,12.93,12.93,0,0,0-.9-3.7,7.11,7.11,0,0,0-1.65-2.42,11.56,11.56,0,0,0-2.43-1.72,1.13,1.13,0,0,1-.5-1.15,1.08,1.08,0,0,1,1.14-.89h28c.51,0,.85.29,1,.89s0,1-.51,1.15a11.75,11.75,0,0,0-2.42,1.72,7.43,7.43,0,0,0-1.66,2.36,12.33,12.33,0,0,0-.89,3.63,51.82,51.82,0,0,0-.25,5.67v41.83a58.56,58.56,0,0,0,.38,7.26,13.67,13.67,0,0,0,1.45,5,6.43,6.43,0,0,0,3.17,2.8,14.16,14.16,0,0,0,5.52.9h.25a14.51,14.51,0,0,0,5.64-.9,6.7,6.7,0,0,0,3.23-2.8,12.12,12.12,0,0,0,1.46-5,72,72,0,0,0,.32-7.26V454.93a51.48,51.48,0,0,0-.26-5.67,12.33,12.33,0,0,0-.89-3.63,8.15,8.15,0,0,0-1.59-2.36,10.34,10.34,0,0,0-2.36-1.72c-.51-.09-.68-.47-.51-1.15,0-.6.34-.89,1-.89h27.92C436.33,439.51,436.67,439.8,436.84,440.4Z"/><path class="cls-2" d="M513.05,459.14c.08,0,.13.09.13.26a1,1,0,0,1-1.15,1.15,2.26,2.26,0,0,1-.64-.26A26.93,26.93,0,0,0,506,457.1a18,18,0,0,0-5.49-1.27H490.1v57a48.78,48.78,0,0,0,.25,5.49,12.05,12.05,0,0,0,.9,3.57,7,7,0,0,0,1.59,2.29,11.29,11.29,0,0,0,2.36,1.66c.42.08.64.47.64,1.15a1.11,1.11,0,0,1-1.15.89H466.76a1,1,0,0,1-1-.89,1.16,1.16,0,0,1,.51-1.15,19,19,0,0,0,2.3-1.6,5.58,5.58,0,0,0,1.59-2.1A13.06,13.06,0,0,0,471,519a27.56,27.56,0,0,0,.31-4.53V455.83H461a18,18,0,0,0-5.49,1.27,26.93,26.93,0,0,0-5.35,3.19,1.15,1.15,0,0,1-1.28,0c-.51-.17-.68-.55-.51-1.15l4.47-19.76a2.26,2.26,0,0,1,.63-.64,2.3,2.3,0,0,1,.9-.13,13.44,13.44,0,0,0,2.67.64,22.76,22.76,0,0,0,3.45.26h40.54a23,23,0,0,0,3.38-.26,13.42,13.42,0,0,0,2.74-.64,2.3,2.3,0,0,1,.9.13c.34.17.51.38.51.64Z"/><path class="cls-2" d="M555.32,525.83A.82.82,0,0,1,556,527a1.1,1.1,0,0,1-1.15.89H527a1.1,1.1,0,0,1-1.14-.89,1.12,1.12,0,0,1,.51-1.15,12.28,12.28,0,0,0,2.55-1.91,6.92,6.92,0,0,0,1.59-2.68,19.2,19.2,0,0,0,.83-4.27c.17-1.74.26-4,.26-6.82v-57q0-5.61-1.22-7.84a9.68,9.68,0,0,0-3.89-3.76.87.87,0,0,1-.5-1.15,1,1,0,0,1,1-.89h27.93a1.1,1.1,0,0,1,1.15.89.83.83,0,0,1-.64,1.15A12,12,0,0,0,553,443.4a6.78,6.78,0,0,0-1.53,2.61,19.34,19.34,0,0,0-.83,4.33q-.26,2.69-.25,6.89v57.89a23.31,23.31,0,0,0,.32,4.27,11.81,11.81,0,0,0,.89,2.93,5.43,5.43,0,0,0,1.53,2A20.5,20.5,0,0,0,555.32,525.83Z"/><path class="cls-2" d="M627.43,446.9a24.26,24.26,0,0,1,4.33,9.44,62.31,62.31,0,0,1,1.41,14.53V496.5A62.4,62.4,0,0,1,631.76,511a24.22,24.22,0,0,1-4.33,9.43,19,19,0,0,1-7.65,5.49,42.86,42.86,0,0,1-12.11,2.55,21.31,21.31,0,0,1-2.62.12H598a18.67,18.67,0,0,1-2.55-.12A42.78,42.78,0,0,1,583.31,526a19,19,0,0,1-7.65-5.49,24.07,24.07,0,0,1-4.33-9.43,62.4,62.4,0,0,1-1.41-14.54V470.87a62.31,62.31,0,0,1,1.41-14.53,24.12,24.12,0,0,1,4.33-9.44,18.86,18.86,0,0,1,7.65-5.48,42.44,42.44,0,0,1,12.11-2.55,18.25,18.25,0,0,1,2.55-.13h7.08a20.91,20.91,0,0,1,2.62.13,42.52,42.52,0,0,1,12.11,2.55A18.86,18.86,0,0,1,627.43,446.9ZM614,463.48a11.49,11.49,0,0,0-1.79-5,7.67,7.67,0,0,0-3.89-2.81,21.1,21.1,0,0,0-6.76-.89,21.58,21.58,0,0,0-6.88.89,7.67,7.67,0,0,0-3.89,2.81,10.87,10.87,0,0,0-1.72,5,59.8,59.8,0,0,0-.38,7.39V496.5a60,60,0,0,0,.38,7.4,10.91,10.91,0,0,0,1.72,5,7.67,7.67,0,0,0,3.89,2.81,21.58,21.58,0,0,0,6.88.89,23.11,23.11,0,0,0,6.89-.83,7.34,7.34,0,0,0,3.89-2.74,10.91,10.91,0,0,0,1.72-5,63.12,63.12,0,0,0,.38-7.52V470.87A53.41,53.41,0,0,0,614,463.48Z"/><path class="cls-2" d="M719.15,441.55a12.28,12.28,0,0,0-2.55,1.91,6.85,6.85,0,0,0-1.59,2.68,19.08,19.08,0,0,0-.83,4.27c-.17,1.74-.25,4-.25,6.82v61.08a10.82,10.82,0,0,0,1.59,4.65,9.37,9.37,0,0,0,3.25,2.61,1,1,0,0,1,.51,1.28,1,1,0,0,1-1,.76l-5,.13a.25.25,0,0,0-.19.06.25.25,0,0,1-.19.07h-14a2.57,2.57,0,0,1-.76-.19,1.08,1.08,0,0,1-.64-.45L671.85,481v34.17a23.31,23.31,0,0,0,.32,4.27,11.81,11.81,0,0,0,.89,2.93,5.43,5.43,0,0,0,1.53,2,12.32,12.32,0,0,0,2.23,1.4,1.16,1.16,0,0,1,.64,1,1,1,0,0,1-1.15,1.15h-27.8a1.1,1.1,0,0,1-1.14-.89,1.12,1.12,0,0,1,.51-1.15,12.28,12.28,0,0,0,2.55-1.91,6.92,6.92,0,0,0,1.59-2.68,19.2,19.2,0,0,0,.83-4.27c.17-1.74.26-4,.26-6.82v-57q0-5.61-1.22-7.84a9.68,9.68,0,0,0-3.89-3.76.87.87,0,0,1-.5-1.15,1,1,0,0,1,1-.89h22.06a1.14,1.14,0,0,1,1,.63l23.59,47.69V452.26q0-5.1-1.27-7.21a10.16,10.16,0,0,0-3.7-3.5.82.82,0,0,1-.64-1.15,1.09,1.09,0,0,1,1.15-.89h27.8a1.09,1.09,0,0,1,1.14.89A1.12,1.12,0,0,1,719.15,441.55Z"/><path class="cls-2" d="M776.64,479.93a13.86,13.86,0,0,1,4.14,4.59,29,29,0,0,1,2.55,5.86,34.85,34.85,0,0,1,1.34,6,37.88,37.88,0,0,1,.38,4.85q0,9.06-2.16,14.54a16.44,16.44,0,0,1-6.76,8.28q-6.51,3.83-16.83,3.83L737,528q-.76,0-1-.9l-6-21.55q-.26-.63.51-1.14a.73.73,0,0,1,.51-.13,1.72,1.72,0,0,1,.77.13,33.79,33.79,0,0,0,5.16,3.44,27.51,27.51,0,0,0,5.48,2.23,36.74,36.74,0,0,0,6.32,1.21,68.24,68.24,0,0,0,7.65.39,10.73,10.73,0,0,0,5.61-1.53,10,10,0,0,0,3.69-3.56,7.64,7.64,0,0,0,.71-2.17,16.73,16.73,0,0,0,.31-3.37,17,17,0,0,0-.38-3.63,6.27,6.27,0,0,0-1.4-2.93,16.59,16.59,0,0,0-2.68-1.65,19.52,19.52,0,0,0-3.51-1.15,21.59,21.59,0,0,0-5-.51,44.41,44.41,0,0,1-10.14-.89,18.31,18.31,0,0,1-6.57-3.05,14.49,14.49,0,0,1-5.61-7.39q-1.65-4.69-1.65-13.36,0-9.17,2.16-14.57a16.92,16.92,0,0,1,6.89-8.34,26.5,26.5,0,0,1,7-2.86,33.13,33.13,0,0,1,8.73-1.09l22.32.13a1,1,0,0,1,1,.77l6,21.42a1.09,1.09,0,0,1-.38,1.14,2.07,2.07,0,0,1-.64.26.83.83,0,0,1-.64-.26,41.89,41.89,0,0,0-5.16-3.31,31.3,31.3,0,0,0-5.55-2.3,38.9,38.9,0,0,0-6.37-1.33,59.46,59.46,0,0,0-7.65-.45h-1.28a10.51,10.51,0,0,0-2.29.26,12.65,12.65,0,0,0-1.79.57,8.85,8.85,0,0,0-1.53.83c-2.8,2-4,5.52-3.57,10.45a6,6,0,0,0,1.21,3.51,9,9,0,0,0,2.36,2.1,8.1,8.1,0,0,0,2.49,1,9.73,9.73,0,0,0,1.85.26h2.35a44.1,44.1,0,0,1,5.55.44,49.09,49.09,0,0,1,7.08,1.54A22.36,22.36,0,0,1,776.64,479.93Z"/><path class="cls-2" d="M396.07,609.94a14.28,14.28,0,0,0,.12,1.91c0,.6,0,1.19.07,1.79s.06,1.23.06,1.91,0,1.3-.06,1.85-.07,1.08-.07,1.59a12.59,12.59,0,0,0-.12,1.66q-.78,12.38-7.4,17A20.39,20.39,0,0,1,381,641a53.59,53.59,0,0,1-11.8,1.08H333.71a1,1,0,0,1-1-.76c-.33-.43-.25-.81.26-1.15a29.28,29.28,0,0,0,3-2.93,8.22,8.22,0,0,0,1.59-2.94,17.08,17.08,0,0,0,.64-4q.12-2.35.12-6.44V571.43c0-2.8-.08-5.08-.25-6.82a19.2,19.2,0,0,0-.83-4.27,6.92,6.92,0,0,0-1.59-2.68,12.28,12.28,0,0,0-2.55-1.91,1.12,1.12,0,0,1-.51-1.15,1.1,1.1,0,0,1,1.14-.89h33.92a68.39,68.39,0,0,1,12.11,1.08,19,19,0,0,1,7.65,3.26q6.76,5.22,6.76,19.25A32.1,32.1,0,0,1,392.24,589q-1.92,4.85-7.91,7.27Q394.41,599,396.07,609.94Zm-30.86-20.15a23.42,23.42,0,0,0,5-.44,6,6,0,0,0,3.12-1.66,6.84,6.84,0,0,0,1.59-3.38,27.62,27.62,0,0,0,.45-5.48,17.53,17.53,0,0,0-.51-4.78,4.72,4.72,0,0,0-1.79-2.62,7.32,7.32,0,0,0-3.31-1.14,42.15,42.15,0,0,0-5.1-.26h-7.65v19.76Zm-8.16,14.67v21.29h7a35.68,35.68,0,0,0,9.05-.83c2-.55,3.27-2,4-4.4a3.89,3.89,0,0,0,.25-1.46,9.26,9.26,0,0,1,.13-1.6,14.59,14.59,0,0,1,.13-1.91,12.74,12.74,0,0,1-.13-1.91,12,12,0,0,1-.13-1.79,5.19,5.19,0,0,0-.25-1.65,8.58,8.58,0,0,0-.83-2.49,4.67,4.67,0,0,0-1.72-1.79,9.59,9.59,0,0,0-3-1.08,24.78,24.78,0,0,0-4.78-.38Z"/><path class="cls-2" d="M465.17,561.1a24.34,24.34,0,0,1,4.34,9.44,63,63,0,0,1,1.4,14.54v25.63a62.92,62.92,0,0,1-1.4,14.53,24.27,24.27,0,0,1-4.34,9.44,18.88,18.88,0,0,1-7.65,5.48,42.71,42.71,0,0,1-12.11,2.55,20.91,20.91,0,0,1-2.62.13h-7.07a18.25,18.25,0,0,1-2.55-.13,42.86,42.86,0,0,1-12.12-2.55,19,19,0,0,1-7.65-5.48,24.26,24.26,0,0,1-4.33-9.44,62.37,62.37,0,0,1-1.4-14.53V585.08a62.47,62.47,0,0,1,1.4-14.54,24.33,24.33,0,0,1,4.33-9.44,19,19,0,0,1,7.65-5.48,42.86,42.86,0,0,1,12.12-2.55,18.25,18.25,0,0,1,2.55-.13h7.07a20.91,20.91,0,0,1,2.62.13,42.71,42.71,0,0,1,12.11,2.55A19,19,0,0,1,465.17,561.1Zm-13.45,16.58a11.36,11.36,0,0,0-1.79-5,7.64,7.64,0,0,0-3.88-2.81,21.19,21.19,0,0,0-6.76-.89,21.64,21.64,0,0,0-6.89.89,7.71,7.71,0,0,0-3.89,2.81,11,11,0,0,0-1.72,5,62,62,0,0,0-.38,7.4v25.63a61.84,61.84,0,0,0,.38,7.39,11,11,0,0,0,1.72,5,7.65,7.65,0,0,0,3.89,2.81,21.64,21.64,0,0,0,6.89.89,22.72,22.72,0,0,0,6.88-.83,7.29,7.29,0,0,0,3.89-2.74,10.75,10.75,0,0,0,1.72-5,61,61,0,0,0,.39-7.52V585.08A51.89,51.89,0,0,0,451.72,577.68Z"/><path class="cls-2" d="M542.31,561.1a24.34,24.34,0,0,1,4.34,9.44,63,63,0,0,1,1.4,14.54v25.63a62.92,62.92,0,0,1-1.4,14.53,24.27,24.27,0,0,1-4.34,9.44,18.81,18.81,0,0,1-7.65,5.48,42.71,42.71,0,0,1-12.11,2.55,20.84,20.84,0,0,1-2.61.13h-7.08a18.25,18.25,0,0,1-2.55-.13,42.71,42.71,0,0,1-12.11-2.55,18.81,18.81,0,0,1-7.65-5.48,24.13,24.13,0,0,1-4.34-9.44,62.37,62.37,0,0,1-1.4-14.53V585.08a62.47,62.47,0,0,1,1.4-14.54,24.2,24.2,0,0,1,4.34-9.44,18.91,18.91,0,0,1,7.65-5.48,42.71,42.71,0,0,1,12.11-2.55,18.25,18.25,0,0,1,2.55-.13h7.08a20.84,20.84,0,0,1,2.61.13,42.71,42.71,0,0,1,12.11,2.55A18.91,18.91,0,0,1,542.31,561.1Zm-13.45,16.58a11.49,11.49,0,0,0-1.78-5,7.71,7.71,0,0,0-3.89-2.81,21.15,21.15,0,0,0-6.76-.89,21.64,21.64,0,0,0-6.89.89,7.64,7.64,0,0,0-3.88,2.81,10.87,10.87,0,0,0-1.73,5,62,62,0,0,0-.38,7.4v25.63a61.84,61.84,0,0,0,.38,7.39,10.87,10.87,0,0,0,1.73,5,7.58,7.58,0,0,0,3.88,2.81,21.64,21.64,0,0,0,6.89.89,22.72,22.72,0,0,0,6.88-.83,7.29,7.29,0,0,0,3.89-2.74,10.75,10.75,0,0,0,1.72-5,61,61,0,0,0,.39-7.52V585.08A51.89,51.89,0,0,0,528.86,577.68Z"/><path class="cls-2" d="M628.38,639.9c.59,0,.89.35.89,1s-.3,1-.89,1a26.25,26.25,0,0,1-3.57.13H603.52a2.86,2.86,0,0,1-.77-.38,18.68,18.68,0,0,1-2-2.93c-1.19-1.87-2.61-4.13-4.27-6.76s-3.4-5.46-5.23-8.48-3.42-5.8-4.78-8.35l-3.7,6.25v7.9a24.15,24.15,0,0,0,.32,4.27,12,12,0,0,0,.89,2.94,5.71,5.71,0,0,0,1.53,2,12.42,12.42,0,0,0,2.24,1.4,1.17,1.17,0,0,1,.63,1,1,1,0,0,1-1.14,1.15H559.4a1.09,1.09,0,0,1-1.15-.89,1.16,1.16,0,0,1,.51-1.15,12.28,12.28,0,0,0,2.55-1.91,7,7,0,0,0,1.6-2.68,19.14,19.14,0,0,0,.82-4.27c.17-1.74.26-4,.26-6.82v-57q0-5.61-1.21-7.84a9.81,9.81,0,0,0-3.89-3.76.86.86,0,0,1-.51-1.15,1,1,0,0,1,1-.89h27.92a1.1,1.1,0,0,1,1.15.89.82.82,0,0,1-.64,1.15q-2.93,1.79-4,6.69a64.12,64.12,0,0,0-1.09,13.33v13L592.68,573l3.31-6.12a37.51,37.51,0,0,0,2.24-4.71A11.5,11.5,0,0,0,599,559a3.21,3.21,0,0,0-.38-1.91,6,6,0,0,0-1.21-1.34,1,1,0,0,1-.26-1.28,1,1,0,0,1,1-.76h27.93c.51,0,.84.3,1,.89a1,1,0,0,1-.64,1.28,19.73,19.73,0,0,0-3.83,2,16.87,16.87,0,0,0-3.18,2.93,35.9,35.9,0,0,0-3.19,4.46q-1.66,2.69-4.08,6.63l-14.67,24.74,21.94,36.08a16.34,16.34,0,0,0,4.52,4.91A11.28,11.28,0,0,0,628.38,639.9Z"/><path class="cls-2" d="M683.14,594.13a13.86,13.86,0,0,1,4.14,4.59,29.67,29.67,0,0,1,2.56,5.87,35.54,35.54,0,0,1,1.33,6,38,38,0,0,1,.39,4.84q0,9.06-2.17,14.54a16.51,16.51,0,0,1-6.76,8.29q-6.51,3.82-16.83,3.82l-22.31.13a1,1,0,0,1-1-.89l-6-21.55c-.17-.43,0-.81.51-1.15a.78.78,0,0,1,.51-.13,1.88,1.88,0,0,1,.77.13,33.79,33.79,0,0,0,5.16,3.44,27.51,27.51,0,0,0,5.48,2.23,37.69,37.69,0,0,0,6.32,1.22,70.86,70.86,0,0,0,7.65.38,10.7,10.7,0,0,0,5.61-1.53,9.89,9.89,0,0,0,3.69-3.56,7.64,7.64,0,0,0,.71-2.17,16.63,16.63,0,0,0,.32-3.37,17,17,0,0,0-.39-3.63,6.23,6.23,0,0,0-1.4-2.92,15.93,15.93,0,0,0-2.68-1.66,19.44,19.44,0,0,0-3.5-1.14,21.74,21.74,0,0,0-5-.51,45,45,0,0,1-10.14-.89,18.37,18.37,0,0,1-6.56-3.06,14.36,14.36,0,0,1-5.61-7.38q-1.67-4.71-1.66-13.37,0-9.15,2.17-14.57a16.9,16.9,0,0,1,6.88-8.34,26.64,26.64,0,0,1,7-2.86,33.56,33.56,0,0,1,8.73-1.08l22.32.13a1,1,0,0,1,1,.76l6,21.42a1.11,1.11,0,0,1-.38,1.15,2.21,2.21,0,0,1-.64.25.87.87,0,0,1-.64-.25,40.85,40.85,0,0,0-5.16-3.32,30.25,30.25,0,0,0-5.55-2.29,38.88,38.88,0,0,0-6.37-1.34,59.46,59.46,0,0,0-7.65-.45h-1.28a10.51,10.51,0,0,0-2.29.26,13.08,13.08,0,0,0-1.79.57,8.85,8.85,0,0,0-1.53.83c-2.8,2-4,5.53-3.57,10.46a6,6,0,0,0,1.21,3.5,8.91,8.91,0,0,0,2.36,2.11,8.1,8.1,0,0,0,2.49,1,9.55,9.55,0,0,0,1.85.25h2.36a42.53,42.53,0,0,1,5.54.45,50.36,50.36,0,0,1,7.08,1.53A22.25,22.25,0,0,1,683.14,594.13Z"/><path class="cls-2" d="M772.85,640c.51.17.67.56.51,1.15s-.51.89-1,.89H744.28c-.51,0-.85-.29-1-.89a1.16,1.16,0,0,1,.51-1.15,12.28,12.28,0,0,0,2.55-1.91,6.87,6.87,0,0,0,1.6-2.68,19.08,19.08,0,0,0,.83-4.27c.17-1.74.25-4,.25-6.82V605.6H725.92v22.19a40.62,40.62,0,0,0,.26,5,10.8,10.8,0,0,0,.89,3.31,6.94,6.94,0,0,0,1.53,2.17,11.22,11.22,0,0,0,2.3,1.59,1.17,1.17,0,0,1,.63,1c0,.77-.34,1.15-1,1.15H702.59c-.51,0-.85-.29-1-.89a.86.86,0,0,1,.51-1.15,20,20,0,0,0,2.29-1.59,5.55,5.55,0,0,0,1.6-2.17,14.3,14.3,0,0,0,.89-3.25,30.69,30.69,0,0,0,.32-4.85V571.43c0-2.8-.09-5.08-.26-6.82a19.26,19.26,0,0,0-.82-4.27,7.06,7.06,0,0,0-1.6-2.68,12.28,12.28,0,0,0-2.55-1.91,1.16,1.16,0,0,1-.51-1.15,1.1,1.1,0,0,1,1.15-.89h27.92a1,1,0,0,1,1,.89c.17.6,0,1-.51,1.15a11.56,11.56,0,0,0-2.36,1.66,7.47,7.47,0,0,0-1.59,2.23,10.88,10.88,0,0,0-.89,3.31,40.62,40.62,0,0,0-.26,5v21.29H749V567.35q0-5.61-1.21-7.84a9.74,9.74,0,0,0-3.89-3.76,1.09,1.09,0,0,1-.64-1.15,1.11,1.11,0,0,1,1.15-.89h28.05a1,1,0,0,1,1,.89c.17.68,0,1.07-.51,1.15a13.78,13.78,0,0,0-2.55,1.85,6.36,6.36,0,0,0-1.59,2.61,17.61,17.61,0,0,0-.77,4.34c-.12,1.78-.19,4.08-.19,6.88l-.12,57.89a24.27,24.27,0,0,0,.31,4.27,10.46,10.46,0,0,0,1,2.94,6.24,6.24,0,0,0,1.59,2A20.68,20.68,0,0,0,772.85,640Z"/><path class="cls-2" d="M840.68,561.1a24.33,24.33,0,0,1,4.33,9.44,62.4,62.4,0,0,1,1.41,14.54v25.63A62.31,62.31,0,0,1,845,625.24a24.26,24.26,0,0,1-4.33,9.44,19,19,0,0,1-7.65,5.48,42.86,42.86,0,0,1-12.12,2.55,20.61,20.61,0,0,1-2.61.13h-7.08a18.25,18.25,0,0,1-2.55-.13,42.71,42.71,0,0,1-12.11-2.55,18.81,18.81,0,0,1-7.65-5.48,24.27,24.27,0,0,1-4.34-9.44,62.92,62.92,0,0,1-1.4-14.53V585.08a63,63,0,0,1,1.4-14.54,24.34,24.34,0,0,1,4.34-9.44,18.91,18.91,0,0,1,7.65-5.48,42.71,42.71,0,0,1,12.11-2.55,18.25,18.25,0,0,1,2.55-.13h7.08a20.61,20.61,0,0,1,2.61.13A42.86,42.86,0,0,1,833,555.62,19,19,0,0,1,840.68,561.1Zm-13.45,16.58a11.49,11.49,0,0,0-1.79-5,7.67,7.67,0,0,0-3.89-2.81,21.1,21.1,0,0,0-6.76-.89,21.58,21.58,0,0,0-6.88.89,7.67,7.67,0,0,0-3.89,2.81,10.87,10.87,0,0,0-1.72,5,60,60,0,0,0-.38,7.4v25.63a59.8,59.8,0,0,0,.38,7.39,10.87,10.87,0,0,0,1.72,5,7.61,7.61,0,0,0,3.89,2.81,21.58,21.58,0,0,0,6.88.89,22.79,22.79,0,0,0,6.89-.83,7.29,7.29,0,0,0,3.89-2.74,11,11,0,0,0,1.72-5,63.24,63.24,0,0,0,.38-7.52V585.08A53.57,53.57,0,0,0,827.23,577.68Z"/><path class="cls-2" d="M912.45,559.83a18.88,18.88,0,0,1,5.37,9.18,58.63,58.63,0,0,1,1.66,15.43q0,9.55-1.73,15.24a18.82,18.82,0,0,1-5.56,9A20.94,20.94,0,0,1,902,613.13a88.43,88.43,0,0,1-14.33,1H881.1v16.57c0,3,.44,5,1.34,6.19a13.15,13.15,0,0,0,3.63,3.12.83.83,0,0,1,.64,1.15,1.1,1.1,0,0,1-1.15.89h-27.8a1.16,1.16,0,0,1-1-.64,1.07,1.07,0,0,1,0-1,.23.23,0,0,1,.26-.25,46.76,46.76,0,0,0,3.31-3.38,7,7,0,0,0,1.53-3.38,28.35,28.35,0,0,0,.2-3.63q.06-3.12.12-8c.05-3.27.07-7,.07-11.09s0-8.43.06-12.94.06-9,.06-13.52V571.43c0-2.8-.08-5.08-.25-6.82a19.2,19.2,0,0,0-.83-4.27,6.92,6.92,0,0,0-1.59-2.68,12.28,12.28,0,0,0-2.55-1.91,1.12,1.12,0,0,1-.51-1.15,1.1,1.1,0,0,1,1.14-.89h29.9a75.16,75.16,0,0,1,15.46,1.47A20.16,20.16,0,0,1,912.45,559.83Zm-31.35,38h6.5a31.85,31.85,0,0,0,7.08-.58,6.65,6.65,0,0,0,5.54-5.73,37.48,37.48,0,0,0,.51-7.08,52.82,52.82,0,0,0-.38-7,8.66,8.66,0,0,0-1.78-4.53,6.62,6.62,0,0,0-3.57-2.23,25.81,25.81,0,0,0-6.76-.7H881.1Z"/><path class="cls-3" d="M31.66,530.74H.88v-5.46s4.76-4.91,4.78-7.91.49-63.8,0-67.95S.5,441.94.5,441.94v-2.16"/><polyline class="cls-3" points="27.59 502.29 29.66 502.29 43.55 530.74 73.2 530.74"/><path class="cls-3" d="M27.59,458.8S39.3,458,42,460.49s1.9,11.48,1.9,14.74c.11,4.16-4.34,5.1-4.34,5.1"/><path class="cls-3" d="M78.5,439.78v2.16s4.67,3.33,5.16,7.48,0,64.95,0,67.95-4.78,7.91-4.78,7.91v5.46h51.78"/><path class="cls-3" d="M105.37,458.69s17.53-.38,20.21,0c4.28.24,6.6,5,6.6,5h3.22"/><path class="cls-3" d="M99.37,493.69s17.53-.38,20.21,0a6.4,6.4,0,0,1,5.6,4h3.22"/><path class="cls-3" d="M141.16,439.78v3s7.74,4.26,8.92,8.91l20,79h21.21"/><path class="cls-3" d="M185.46,439.78V443s3.57,1.38,4.69,4.38C188.48,458.52,180,493.52,180,493.52"/><path class="cls-3" d="M221.13,463.69v39.6c0,17.27,8.9,28.45,27.51,28.45h16.79"/><path class="cls-3" d="M265.73,500.74V475.68c0-11.36.26-17.72-9.66-17.72h-5.94"/><path class="cls-3" d="M351.66,530.74H296.88v-5.46s4.76-4.91,4.78-7.91.49-63.8,0-67.95-5.16-7.48-5.16-7.48v-2.16"/><path class="cls-3" d="M369.13,463.69v39.6c0,17.27,8.9,28.45,27.51,28.45h11.79"/><path class="cls-3" d="M369.06,483.82c.06-16.09.05-32.33-.2-34.4-.49-4.15-5.16-7.48-5.16-7.48v-2.16"/><path class="cls-3" d="M408.76,502.48s.25-50.14-.1-53.06c-.49-4.15-5.16-7.48-5.16-7.48v-2.16"/><path class="cls-3" d="M447.85,463.93h2.74s4.86-4.84,11.59-4.84c2.29,0,6.35.05,6.35.05v55.58a11.46,11.46,0,0,1-4.86,9.29v6.73h32.11"/><path class="cls-3" d="M513.11,463.93h-2.75s-4.85-4.84-11.59-4.84l-17.91,0"/><path class="cls-3" d="M523,439.78v3.69s6-1.06,6,12.64v57.44c0,7.32-6,12-6,12v5.24h32.85"/><path class="cls-3" d="M567.6,462.69v39.6c0,17.27,8.9,28.45,27.51,28.45H611.9"/><path class="cls-3" d="M612.19,499.74V474.68c0-11.36.26-17.72-9.65-17.72H596.6"/><path class="cls-3" d="M677,530.74H644.88v-5.46s4.76-4.91,4.78-7.91.49-63.8,0-67.95-5.16-7.48-5.16-7.48v-2.16"/><path class="cls-3" d="M692.3,483.82c.06-16.09.05-32.33-.2-34.4-.49-4.15-5.16-7.48-5.16-7.48v-2.16"/><polyline class="cls-3" points="671.17 485.26 696.23 530.74 699.42 530.74 719.89 530.74"/><path class="cls-3" d="M727.64,461.37v11.42c0,13.44,10.58,20.49,18.61,20.49,10.91,0,17.57,1.41,17.57,5.79a16.52,16.52,0,0,1,0,5.19"/><polyline class="cls-3" points="726.86 505.25 733.79 530.74 764.76 530.74"/><path class="cls-3" d="M756.08,457.89c10.84.7,20.08,2.45,25,7.82h3.76"/><path class="cls-3" d="M405.13,577.69v39.6c0,17.27,8.9,28.45,27.51,28.45h16.79"/><path class="cls-3" d="M449.73,614.74V589.68c0-11.36.26-17.72-9.66-17.72h-5.94"/><path class="cls-3" d="M482.13,577.69v39.6c0,17.27,8.9,28.45,27.51,28.45h16.79"/><path class="cls-3" d="M526.73,614.74V589.68c0-11.36.26-17.72-9.66-17.72h-5.94"/><path class="cls-3" d="M633.64,576.37v11.42c0,13.44,10.58,20.49,18.61,20.49,10.91,0,17.57,1.41,17.57,5.79a16.52,16.52,0,0,1,0,5.19"/><polyline class="cls-3" points="632.86 620.25 639.79 645.74 670.76 645.74"/><path class="cls-3" d="M663.08,572.89c10.84.7,20.08,2.45,25,7.82h3.76"/><path class="cls-3" d="M780.13,577.69v39.6c0,17.27,8.9,28.45,27.51,28.45h16.79"/><path class="cls-3" d="M824.73,614.74V589.68c0-11.36.26-17.72-9.66-17.72h-5.94"/><path class="cls-3" d="M371.66,644.74H329.88v-5.46s4.76-4.91,4.78-7.91.49-63.8,0-68-5.16-7.48-5.16-7.48v-2.16"/><path class="cls-3" d="M356.59,572.07s11.39-.3,14.39.73c2.24.47,2,3.63,2,10"/><path class="cls-3" d="M356.59,607.07s13.39-.3,16.39.73c2.24.47,2,5.63,2,12"/><path class="cls-3" d="M587.8,644.74H555.88v-5.46s4.76-4.91,4.78-7.91.49-63.8,0-68-5.16-7.48-5.16-7.48v-2.16"/><polyline class="cls-3" points="584.33 617.54 600.28 644.74 628.82 644.74"/><path class="cls-3" d="M594.09,553.78v3.32s2.25-.19,2.25,3.19-14.26,24-14.26,24"/><path class="cls-3" d="M730.8,644.74H698.88v-5.46s4.76-4.91,4.78-7.91.49-63.8,0-68-5.16-7.48-5.16-7.48v-2.16"/><path class="cls-3" d="M745.89,598.58c0-16.56,0-33.69-.23-35.16-.49-4.15-5.16-7.48-5.16-7.48v-2.16"/><path class="cls-3" d="M772.8,644.74H740.88v-5.46s4.76-4.91,4.78-7.91c0-.51,0-2.66,0-5.9l.19-17.17H725.06"/><path class="cls-3" d="M886.8,644.74H854.88v-5.46s4.76-4.91,4.78-7.91.49-63.8,0-68-5.16-7.48-5.16-7.48v-2.16"/><path class="cls-3" d="M898.73,589.68c0-11.36.26-17.72-9.66-17.72h-5.94"/><line class="cls-3" x1="880.72" y1="616.98" x2="893.67" y2="616.98"/><path class="cls-1" d="M672.89,214.75c-7.11,1.09-15,2-16.3,10.66-1.14,7.83,4.29,15.64,11.12,19,13.67,6.63,33.72-4.48,32.8-20.46-1-17.47-24.84-23.7-38.11-15.72-12.71,7.65-8.43,30.57,3.18,37.28,8,4.61,15.62-.26,18.48-8.22,2.78-7.74.65-16.46-4.61-22.63-1.88-2.2-5.62-5-8.52-2.86s-1,6.88.72,9c2.07,2.42,1.92,5.72.71,8.58a9.62,9.62,0,0,1-2.92,3.92c-1.7,1.29-1.25,1.28-1.79.51-1.85-2.59-.67-9.21,1.07-11.34,3.33-4.06,9.07-4.17,13.87-3.77,2,.17,3.91.63,5.88.91,1,.45.93.22-.16-.68l.15,1c-.41.85-.35,2.14-.72,3.07-1.67,4.21-6,7.63-10.18,9.14a14.75,14.75,0,0,1-6.66,1c-.67-.07-1.94-.1-2.46-.62s0,.68.1-.2c.41-4.31,8.17-4,11.2-4.48,6.86-1.06-.55-14-6.85-13Z"/><path class="cls-1" d="M837.8,425.06c-5,5.87-10.12,12.31-10.13,20.45s5,15.47,10,21.39c4.57,5.36,11.49,12.25,19.24,11.51,6.37-.61,14.33-5.36,18.44-10.1,11.43-13.17,1.49-30-10.39-39-5-3.78-13.15-7.59-18-1.46-4.24,5.4-3.8,14.57-3.19,21,.85,8.82,5.71,20.08,15.05,22.88,7.73,2.33,13-8.29,14.06-14.29.75-4.18-2.45-8.64-5.2-11.5-.93-1-7.49-6.5-8.2-2.54-.73,4.13-2.49,8.55-6.08,11a4,4,0,0,1-1.92,1l6.22,6.58c.32-.41-.32-3.21-.36-3.81a47.75,47.75,0,0,1,.16-8.54c.42-3.47,1.69-8.7,6.17-8.47a5.64,5.64,0,0,1,2.49.87c2,1.22,1.26,1.8,1.12.68-.31-2.65-.45.77-.38.48-.29,1.22-.21,2.41-.62,3.67-1.42,4.45-4.8,7.69-8.65,10.15-3.13,2-8.45,5.47-12.37,4.71s-4.3-3.8-3.63-7c1.11-5.39,4.79-9.7,8.28-13.76,4.15-4.83-8.94-19.6-12.12-15.91Z"/><path class="cls-1" d="M437.2,197.58c-16.11,12.51-24.8,31.13-28.87,50.73a186.32,186.32,0,0,0-3.47,30c-.51,11.69-.5,24,4.06,35,8.29,20,34.34,33.82,55.34,26.38,21.3-7.55,27.56-31.46,27.14-51.87-.38-18.24-6.06-36.82-20.67-48.68-8.21-6.66-21.58-13.68-32.4-10.78-4.82,1.29-7.42,5.65-10,9.55a171.63,171.63,0,0,0-9.4,15.91,173.35,173.35,0,0,0-18.59,99.45c1,9.27,2.8,18.6,7.7,26.68,5.86,9.67,16.08,15.56,27,17.88,11.3,2.4,22.08-.11,31.72-6.3,9.43-6.06,17.13-14.53,24.2-23.13,7.33-8.92,13.95-18.92,16.68-30.29,2.26-9.41,1.93-19.94-2.15-28.82-4.65-10.14-13.68-17.12-23.61-21.73a92.26,92.26,0,0,0-32.67-8c-5.43-.36-9.13-.43-13.79-3.18-5.35-3.15-10.6-6.34-16.21-9-18.6-8.89-46.26-16.49-63.47-.67-7.23,6.66-11.23,15.88-14,25.13-2.91,9.69-5.58,20-5.06,30.19,1.22,24.32,28.51,35.69,50.07,33.23,21.81-2.49,41.47-18.48,54.46-35.33,12.64-16.38,24.59-42.16,12.78-62.06-10-16.85-38.33-28.68-55.72-16.31-7.61,5.4-12,14.4-14.88,23a188.59,188.59,0,0,0-8.27,37.79,208.5,208.5,0,0,0-1.08,36.8c.68,11.71,1.68,24.4,6.8,35.14,9.44,19.8,37.59,32.78,57.5,20.57,9.26-5.68,16.81-14.82,23.49-23.23a156,156,0,0,0,18.23-28.94c8.69-17.9,17.8-42.32,9.79-62-8.18-20.09-34.13-28.79-54.26-26.28-20.33,2.53-35.92,18.95-41.63,38-2.64,8.83-3.11,18.89,0,27.67,3.69,10.51,12.66,17.43,22.83,21.2s21.48,4.76,31.85,1.44,18.41-10.26,25-18.7c14.41-18.5,23.29-42.9,26-66.05,1.29-10.8.66-22-5.81-31.17-5.48-7.76-14.23-12.71-23-15.93-17.49-6.43-38.1-5.9-53.7,5-16.8,11.72-25.91,31.55-30.61,50.9a174,174,0,0,0-1.46,74.71c2.3,11.6,5.49,23.31,12.18,33.21,6.46,9.57,16.5,16.2,27.43,19.63,10.47,3.28,21.58,3.47,31.47-1.67,8.75-4.55,15.49-12.7,20.55-21,12.26-20.09,18.75-44.94,19.6-68.35.41-11.13-.81-22.34-6.71-32-5.46-8.95-13.85-15.79-23.06-20.64-22.4-11.8-48.7-12.89-72.83-6.14-18.69,5.23-38.78,17.56-34.81,39.85,3.64,20.37,21.2,38.16,38.47,48.1,18.78,10.81,42.72,16.35,63.69,8.89,19.45-6.91,34.32-22.48,44.62-40,5.7-9.67,10.1-20.63,9.55-32.05-.58-11.93-7.35-21.21-15.9-29-17.44-15.91-40-27.41-64.18-25.19a69.52,69.52,0,0,0-51,30.44c-22.47,33.06-20.47,83.21,3.19,115.11,13.21,17.81,35.32,30.74,57.66,31.63,23.19.92,40.08-18.1,51.42-36.18A121.63,121.63,0,0,0,515,293.29c.13-10.93-.42-22.79-6.58-32.21s-17.05-14.92-27.33-18.49c-19-6.61-41.85-8.45-60.89-1-8.46,3.31-15.81,8.68-20.74,16.4-6.2,9.73-7.51,21.93-7.26,33.22.23,10.82,2.39,21.55,9.25,30.21,7,8.88,17.91,14.46,28.52,17.82a81.73,81.73,0,0,0,62.4-5.07c18.07-9.47,33.18-27.51,34.82-48.41,1.75-22.49-14-39.35-33.59-47.78-23.12-9.93-48.43-8.4-71.21,1.69-9.74,4.31-19.12,10.12-25.23,19.06-5.37,7.84-7,17.47-6,26.79,4.83,44.92,66.28,58,100.54,39.89,17.49-9.23,33-27,38.87-46,3.26-10.59.07-20.1-9.24-26.08A46.68,46.68,0,0,0,492,246.23c-22,2.31-31.34,25.23-36.94,43.69a183.27,183.27,0,0,0-6.51,74.39c1.31,11.16,1.87,22.24,13.41,27.15,5.31,2.26,12.34,4,17-.33a49.85,49.85,0,0,0,9.71-13.5c9.68-18.79,7.44-41-4.69-58-11.57-16.27-33.42-29.08-53.89-26.17-8,1.14-15.3,6.39-14.56,15.24,1,11.81,14,18.28,24.09,20.88,48.57,12.5,74.27-45.66,81.69-83.51,1.92-9.83,5.14-23.11.25-32.58-5.22-10.12-18.24-14.41-28.83-15.54-22.89-2.44-45.57,8.27-63.5,21.56A222.43,222.43,0,0,0,364.83,297c-5.27,10.57-10.88,22.18-12.09,34.06-2.43,23.75,18.4,38,38.8,44,21.36,6.28,47.56,5.16,62.69-13.3,14.71-17.93,7.41-41.06-8.49-55.45-18-16.29-44.27-23.94-67.86-27a155.73,155.73,0,0,0-38.71-.12c-9.13,1.12-18.9,5.41-14.53,16.4,3.87,9.72,13.5,18.54,21.37,25.09a85.81,85.81,0,0,0,32.78,16.89c21.2,5.66,43,1.39,56.4-16.9,13.75-18.76,12.15-43.07,8.09-64.76-1-5.17-19.78-9.26-18.87-4.39,3,16.23,4.78,33.44-1,49.3-4.62,12.65-14.24,24.44-27.5,28.48-14.35,4.38-26.78-1.25-37.36-10.89-5.2-4.74-11.25-10.7-14.4-17.05-1.43-2.88-2.43-6.34-.48-9.22,1.83-2.72,5.23-3.32,8.27-3.78a121.15,121.15,0,0,1,49.26,3c13.3,3.61,26.42,9.72,34.78,21.11,8.79,12,10.07,27.61,1.52,40-8.45,12.25-24.06,18.24-38.61,16.75-12.35-1.26-23.63-8.9-26.63-21.46-3.59-15.08,5.31-32,11.9-45.13a216.31,216.31,0,0,1,57.49-71.18c11.93-9.58,25.35-18.09,40.23-22.17a71.78,71.78,0,0,1,10.56-2.11c1.61-.2,3.23-.31,4.86-.36.61,0,4.27.56,4.82.25.86-.48-1.93-.46-1.62-.66s1.57,1.75,1.32,1.34a19.76,19.76,0,0,1,2,3.95,28.27,28.27,0,0,1,1,10.75c-1,16.17-5.39,32.5-11.33,47.53-5.32,13.48-12.18,26.91-22.54,37.25a56.69,56.69,0,0,1-15.86,11.39,38,38,0,0,1-9.07,2.87,27.11,27.11,0,0,1-5.08.52c-.72,0-3.19-.51-2.09.11-5.2-3-5.54-11.68-2-15.87,2.83-3.3,7.77-4.5,11.94-3.86,3.39.52,8.2,4.46,11.47,7.69a52.45,52.45,0,0,1,11.31,16.47,51.78,51.78,0,0,1-.21,41.17,55.28,55.28,0,0,1-4.83,8.92c-.87,1.3-1.79,2.58-2.78,3.79a20.49,20.49,0,0,0-2.48,2.8c-.41,1.07-2.82,1.1.46,1.43l7.41,2.13,1.29.81c1.28,1.06,1.61,1.17,1,.35a10.68,10.68,0,0,0-.8-1.58,24.41,24.41,0,0,1-1.22-5q-1.12-5.85-1.85-11.76a172.6,172.6,0,0,1-1.23-25.51A180.73,180.73,0,0,1,474,296.3c3.93-12.92,8.92-27.66,20.11-36.13,3.83-2.9,9.81-6,14.86-5,1.61.35-.66-.53.24.27a12.48,12.48,0,0,1,3.61,7.81c.93,7.37-2.92,15.06-6.34,21.36a83.77,83.77,0,0,1-11.38,16.26c-8.84,9.8-20.29,17.86-33.1,21.4-10.5,2.9-23,3.66-32.85-1.7-10.76-5.85-17.3-17.45-18.95-29.35-4.35-31.26,29.58-48.39,56.12-50.79,12.5-1.13,24,1.6,32.59,11.13,9.48,10.5,11.35,24.79,7.36,38.08C498.56,315.46,472,333.38,445.57,334c-12.42.3-23.93-3.66-29.76-15.44-6.18-12.47-5.95-29-2.48-42.2,7-26.63,36.67-34.3,60.9-28.56,13.71,3.24,19.8,13.45,21.29,27a113.35,113.35,0,0,1-3.76,42.3,122.87,122.87,0,0,1-18.43,38.68c-7.92,11.08-18.79,23.48-32.66,26.65-12.44,2.83-23.59-5.49-31.5-14.28-8.33-9.27-13.95-20.58-17.41-32.5-7.37-25.45-5.25-55.05,7.89-78.3a67,67,0,0,1,29.59-27.87c10.3-4.89,24.09-8.11,35-3.37,6.5,2.82,12.3,7.48,17.63,12.08s10.33,10.19,12.73,17c5.06,14.49-1.91,30.31-9.6,42.5-13.17,20.89-36.85,42.3-63.59,37.05-11.39-2.24-21.44-9.92-29-18.46-8.69-9.83-17.79-24.62-14.42-38.28,3.12-12.65,15.9-20,27.45-23.71,13.78-4.48,30.4-7.3,44.61-3.16,11.76,3.42,21.2,13.28,24.91,24.82,4.74,14.7,2.26,31.76-1,46.55s-8.39,29.71-16.28,42.65c-6.17,10.11-16.2,21.51-28.93,22.27-5,.3-8.7-3.78-11.63-7.38-4.82-5.92-7.7-13.16-9.86-20.4a164,164,0,0,1-6.62-48c.25-27.5,6-60.89,26.18-81.29,8.33-8.42,19-14.3,31.06-14.61a33,33,0,0,1,6.12.32,12.73,12.73,0,0,1,4.31,1.22,21.31,21.31,0,0,1,9.41,9.68c6.84,13.78,2.57,31.47-1.4,45.51-4.17,14.74-10.55,29.31-19.4,41.86-7.61,10.8-19.57,21.42-33.64,21.1a11.91,11.91,0,0,1-2.79-.29c-.27-.07.89.64-.25-.17a19.35,19.35,0,0,1-5.91-6.92,35,35,0,0,1-3.49-18.41,54.72,54.72,0,0,1,15.2-33.91c8-8.14,20.81-15.16,32.63-12.27,11.55,2.83,15.21,18.62,14.95,28.73-.36,14.11-5.34,28.23-11.17,40.94a152.8,152.8,0,0,1-23.86,37c-4.83,5.5-10,11.09-16,15.32a25.54,25.54,0,0,1-9.51,4.49,9.07,9.07,0,0,1-3.77.23c1.19.28-.24-.21-.65-.54-11.64-9.41-13.88-24.59-15.23-38.73a198.83,198.83,0,0,1,1.77-50.76c2.31-14.14,5.3-30,13-42.39,3.23-5.18,8-9.93,14-11.57,4.46-1.21,6.6,0,9.76,3.29,10.44,10.94,8.48,27.8,3.46,40.77a95,95,0,0,1-24.59,35.4c-10.44,9.55-24.1,19.09-38.56,20.49-5.46.53-9-.37-12.3-4.92-4-5.49-4.82-12.73-4.34-19.33,1.68-23.15,12.76-59.86,42.66-54.76,13.91,2.37,24.51,12.52,37.42,17.4,7.93,3,15.8,3.29,24.12,4,5.22.47,10.62,1.3,15.3,3.77,12.05,6.36,16.07,21.36,14.43,34-1.92,14.79-10.71,27.66-20.34,38.62-8.88,10.11-20.73,22.84-35,24.4-.77.08-2.86.08-2.86.08,1.23.25.76.54-.06-.31a32.41,32.41,0,0,1-5.53-6.7c-3-5.31-4.62-11.4-5.66-17.37-5-28.58-1.05-58.93,9.11-86,5.06-13.46,11.68-27.79,20.73-39.07.18-.21,4.13-3.71,4.21-3.24.18,1.18-4.13-2.23-1.09.42,2,1.78,4.18,3.17,6,5.21a47,47,0,0,1,8.88,15.22c8.2,22.22,7.21,58.76-16.14,71.57-3.73,2.05-9.64,4.63-13.63,2-5.33-3.48-9-9.53-11.17-15.37-5.16-14-3.88-30-2.4-44.51,2.5-24.58,9.84-50.27,30.14-66,3.56-2.76-13.31-11.3-17.68-7.91Z"/><path class="cls-2" d="M524.4,193.15c41.81-26.62,81.67-63.47,102.77-109a141.24,141.24,0,0,0,12.58-44.68c.14-1.37-3.88-3-3.87-3.17-5.63,54.19-44.51,99.32-85.42,132.2A337.74,337.74,0,0,1,520.54,190c-.22.14,2.89,3.79,3.86,3.17Z"/><path class="cls-2" d="M695.94,130.75c-.28,5.54-3.59,10.75-9.34,11.92a10.75,10.75,0,0,1-12.91-10.75,11.92,11.92,0,0,1,9.94-11.77c7.08-1.08,12,4.51,12.31,11.12.12,2.38,4.86,3.31,4.71.39a16.55,16.55,0,0,0-16.19-15.76A15.3,15.3,0,0,0,668.91,131,16.45,16.45,0,0,0,683.72,147a15.4,15.4,0,0,0,16.93-14.77C700.77,129.77,696.07,128.11,695.94,130.75Z"/><path class="cls-2" d="M564.84,225.52c20.76-4.19,42.75-6.47,63.31-.06,4.41,1.37,10.66-5.44,4.76-7.28-22-6.86-45.85-4.55-68.09-.06-5.43,1.09-6.45,8.7,0,7.4Z"/><path class="cls-2" d="M629.42,209.13l45.37-56.22c3.51-4.35-3.55-11.43-7-7.1L622.38,202c-3.52,4.35,3.54,11.43,7,7.1Z"/><path class="cls-2" d="M575,276.55l32.55-40.33c3.44-4.25-3.37-11.57-6.77-7.36L568.2,269.2c-3.43,4.25,3.37,11.56,6.77,7.35Z"/><path class="cls-2" d="M702.13,226.45c-.5,13.14-14.78,20-26.5,19.51-10.86-.44-24.55-7.3-24.55-19.76,0-13.18,15.18-19.93,26.5-19.51s24.08,7.32,24.55,19.76c0,1.51,5,1.3,5-.25-.43-11.32-10.75-18.3-20.88-20.66-10.86-2.53-23.87-.78-32.65,6.47-8.3,6.86-10.05,18.27-2.51,26.44s20.17,10.77,30.94,9.34c11.52-1.52,24.61-8.6,25.1-21.59C707.18,224.76,702.19,224.84,702.13,226.45Z"/><line class="cls-4" x1="571.59" y1="290.17" x2="646.29" y2="261.61"/><path class="cls-2" d="M572.93,292.21l74.71-28.56c2-.77-1-4.73-2.69-4.07l-74.71,28.56c-2,.76,1,4.73,2.69,4.07Z"/><path class="cls-2" d="M928.35,164.64c-.36,7.09-6,13.08-13.51,10.73a12.87,12.87,0,0,1-8.85-12.1c0-6.83,5.54-12.31,12.42-11,6,1.16,9.65,6.51,9.94,12.33.1,2,4.76.33,4.67-1.37-1-20.05-31.62-17.61-31.7,1.37,0,8.84,8,15.22,16.55,14.3A16.75,16.75,0,0,0,933,163.27C933.12,161.37,928.44,162.9,928.35,164.64Z"/><line class="cls-4" x1="799.94" y1="201.54" x2="892.19" y2="166.95"/><path class="cls-2" d="M801,203.75l80.53-30.19,11.71-4.4c2.08-.78-.39-5-2.07-4.42l-80.53,30.2-11.71,4.39c-2.08.78.4,5,2.07,4.42Z"/><path class="cls-2" d="M143.79,354.12c16.72-16.29,38.19-27.52,59.13-37.37,31.05-14.6,63.6-26,96.4-35.94,6-1.81,1-9.53-3.74-8.09-33.52,10.16-66.78,21.67-98.51,36.59-21.51,10.12-43.69,21.79-60.87,38.52-3.89,3.79,4.08,9.71,7.59,6.29Z"/><path class="cls-2" d="M852.59,244.52c3.16,17.91-15.45,33.57-27.92,43.1-25.4,19.4-55.22,33.17-84.6,45.32-22.4,9.27-45.26,17.41-68.33,24.86-1,.32,1,4.85,2.36,4.41,38.86-12.54,77.5-26.88,113.73-45.87,21.8-11.43,46.57-25.13,61-45.83,4.79-6.87,8-15,6.5-23.45-.19-1.11-3.16-4.94-2.74-2.54Z"/><path class="cls-2" d="M715.74,213.25C743,212.06,770.5,212,797.5,216c16.44,2.43,35.14,6,48.22,17.05,2.43,2.05,4.92-1.6,2.52-3.63-13.38-11.28-32.48-15.22-49.3-17.79-27.82-4.25-56.28-4.17-84.32-2.94-3.18.14-1.71,4.71,1.12,4.58Z"/><path class="cls-2" d="M885.51,450.93c-.32,15-10.47,28.36-25.39,31.58-18.77,4-34.67-11.4-34.67-29.82a32.57,32.57,0,0,1,25.39-31.58c19.1-4.12,34.28,11.45,34.67,29.82,0,1.09,4.68,1.76,4.68,1.76-.62-29.1-38.9-45.69-59.94-24.65a32.79,32.79,0,0,0-4.09,40.85c6.7,10.13,19.49,16.28,31.54,16.24,17.94-.07,32.11-14.71,32.49-32.44C890.21,451.66,885.51,450.87,885.51,450.93Z"/><path class="cls-2" d="M511.13,380.71c55.28-11.31,110.54-26.54,162.06-49.86,18.33-8.3,36.51-17.67,52.65-29.77,9.88-7.41,20.61-16.58,25.15-28.43,8-20.81-14.36-33.07-30.94-38.65-1.35-.46-4.13.49-4.81.27,15.18,5.1,36.65,15.77,31.79,35.24-3,11.84-13.11,21.27-22.26,28.6-14.87,11.92-31.9,21.12-49,29.27A581.39,581.39,0,0,1,606,354.63a909.84,909.84,0,0,1-99.21,25.86,15.68,15.68,0,0,0,4.32.22Z"/><path class="cls-2" d="M488.75,399.07,544.27,394l30.38-2.8,3.39-.31c2.34-.24-.74-.15-.83,0,.18-.35,4.24-.09,4.64-.1,40.07-.83,80.15-1.88,120.23-2.5,43.93-.68,89.18,6.68,129.47,24.54a13.26,13.26,0,0,0,10.34-.13c1.57-.68,5.33-3.49,2.06-4.94-41.5-18.39-86.69-25.82-131.89-26.45-17-.24-34,.55-51,.9l-70.68,1.48c-12.17.25-24.15,1.46-36.27,2.57l-66.23,6.11c-2,.18-7.37,1.47-7,4.33s6.08,2.55,7.88,2.39Z"/><path class="cls-2" d="M418.4,352.36c36.39-1,64.88-26.73,84.77-55.05,1.67-2.38-4.29-6.93-5.91-4.62-19.44,27.68-47.05,53.08-82.67,54-3.49.09,1.21,5.71,3.81,5.64Z"/><path class="cls-2" d="M384.27,345.67c26.9-.85,55.58-3.27,76.78-21.76,3.67-3.2-1.67-7.41-4.94-4.57-19.66,17.15-46.38,19.05-71.29,19.84-4.51.14-5.44,6.65-.55,6.49Z"/><path class="cls-1" d="M352.4,392.57c-34,3.16-68.19,5.19-102.35,4.58-23.63-.42-48-1.58-71-7.71a83.94,83.94,0,0,1-11.44-3.83c-1-.43-2.84-1.31-2.76-1.29.78.19-.92-.69,0,0a7.66,7.66,0,0,0,1,.63c1.19.67.56.6-.06-.11-2.93-3.35-5.06-7.41-4.3-12.38,1-6.43,5.58-11.93,10.06-16.35,7.17-7.06,15.71-12.71,24.32-17.82,30.75-18.24,64.95-30.84,98.71-42.21.3-.1-5.27-4.56-5.77-4.88-1.41-.91-5-3.89-6.82-3.27-32.45,10.93-65.11,23-95,40-9.7,5.53-19.39,11.64-27.47,19.42-4.82,4.63-9.91,10.53-10.74,17.45-.65,5.44,1.89,10.11,5.65,13.85,6.5,6.45,15.15,11.3,23.55,14.79,20.71,8.59,44.47,10.3,66.61,11.4,39.87,2,79.94-.31,119.64-4,1.31-.12-3.42-3.6-3.75-3.84-1.74-1.23-5.74-4.67-8.11-4.45Z"/><path class="cls-1" d="M713.44,227.15c18.18.76,36.48,2.14,54.31,5.9,12,2.53,24.06,5.68,34.06,12.82a21.35,21.35,0,0,1,3.6,3.29,26.13,26.13,0,0,1,2,2.48c.21.3.7,1.31,0,0a12.77,12.77,0,0,1,.74,1.48c.31.81.62,1.59.88,2.42.08.23,0-.95.13.65a25.27,25.27,0,0,1,0,4.08c0-.36.39-1.4-.11.24-.21.7-.34,1.42-.56,2.11s-.46,1.27-.69,1.9c.7-1.91.11-.23-.35.62-.78,1.43-1.62,2.79-2.52,4.15-.35.52-1.93,2.54-.4.61q-.9,1.14-1.86,2.25a89.43,89.43,0,0,1-9.15,8.9c-.31.26-1.43,1.15.07-.06l-1.29,1c-.9.69-1.79,1.39-2.7,2.07-2.15,1.63-4.35,3.19-6.59,4.71a264.49,264.49,0,0,1-29.93,17.28c-28.61,14.24-58.73,25.44-89.1,35.29-43.27,14.05-87.49,25-132.06,34.08-4.45.9-9.66,4.43-9.45,9.53.21,4.92,5.76,7,10,6.16a1268.58,1268.58,0,0,0,127.92-32.57c32.79-10.29,65.35-22,96.24-37.2,21.07-10.34,43.76-22.2,59.67-39.93,11-12.24,18.1-29.57,5.32-43.45-9.65-10.48-24.8-15.4-38.21-18.73-21.34-5.31-43.54-7.2-65.44-8.11-4.76-.19-10.39,2.79-11.69,7.63s2.74,8.22,7.21,8.4Z"/><path class="cls-1" d="M723.44,232.59c14.13,1.88,28.39,4.36,41.7,9.62a46.84,46.84,0,0,1,12.51,6.7c-1.3-1,.46.44.84.79s2.16,2.11,1.69,1.59a19.84,19.84,0,0,1,1.92,2.82,11.37,11.37,0,0,1,1,7.66c-.61,3.8-1.78,6.19-4,9.66-5.72,9-14.4,15.93-23,22.07-14.51,10.39-30.4,18.73-46.54,26.28-10.17,4.77,3.07,18.78,11,15.05,16.65-7.79,33.14-16.3,48.24-26.83,10.19-7.11,20.55-15.5,27.28-26.11,5.18-8.15,7.35-17.78,3.87-27-4.3-11.43-15.22-18.88-25.76-24-16.5-8-35.13-11.46-53.17-13.87-4.16-.56-8.61,1.47-8.06,6.28s5.92,8.7,10.35,9.3Z"/><path class="cls-2" d="M386.31,387.41c-28.89,1.86-57.89,2.82-86.83,1.7-21.12-.82-42.74-2.41-63.23-7.9-10.43-2.79-24.93-7.08-30.3-17.54-4.59-8.93,1.39-18.27,7.48-24.77,6.52-7,14.84-11.63,23.07-16.26A580.46,580.46,0,0,1,301.82,291c3.14-1.28.24-2.49-1.82-1.65a611.9,611.9,0,0,0-61.52,29.45c-7.75,4.22-15.81,8.48-22.8,13.93-8,6.21-18.1,17-16,28.13s15,16.69,24.35,20c18.82,6.59,39.28,8.65,59,10,33.71,2.23,67.59,1.23,101.27-.94,1.59-.1,5.16-2.66,2-2.45Z"/><path class="cls-1" d="M267.6,387.79a342.09,342.09,0,0,1-46-4.43c-9.69-1.71-19.82-4.22-27.58-8.71-.84-.48-1.66-1-2.46-1.54-1.48-1-.13,0-1.05-.79-.54-.47-1.07-.95-1.57-1.46-.32-.33-1.86-2.27-1-.95a14.72,14.72,0,0,1-1.93-3.84c.43,1.32,0,.11,0-.52a18.56,18.56,0,0,1-.1-2.69c-.11,1.39.22-.77.33-1.16a24,24,0,0,1,.83-2.48c-.41,1,.42-.8.58-1.07.59-1,1.22-2,1.9-2.94a54.11,54.11,0,0,1,9.88-9.9c13.18-10.77,28.87-18.54,44.19-25.75,3.95-1.86,5.72-6.83,2.57-10.19-3.49-3.73-9.72-3.15-13.88-1.19-15.85,7.46-31.54,15.71-45.48,26.43-8.28,6.38-17.76,14.92-20.25,25.57-5.15,22,23.29,31.48,39.46,35.22,18.88,4.38,38.29,6,57.62,6.78,4.37.17,10.46-1.35,11.72-6.26,1.19-4.62-3.77-8-7.84-8.13Z"/><path class="cls-1" d="M352.34,268.14c16.74-29.55,39.34-62,76.29-65.26,3.44-.3-2.62-6.66-3.21-7.2-2.57-2.41-7.05-6.33-10.94-6-37.52,3.27-60.81,36-77.84,66.05-2.44,4.31,13.93,15.52,15.7,12.4Z"/><path class="cls-1" d="M375.08,262.41c12-14.2,24.34-28.54,40.09-38.72a101.73,101.73,0,0,1,51.53-16c4.11-.16,5-3.4,2.54-6.3-3-3.51-8.63-5.46-13.12-5.29a114.88,114.88,0,0,0-55,16.23c-17.1,10.28-30.25,25.46-43,40.53-4.91,5.8,12.9,14.35,16.93,9.58Z"/><path class="cls-1" d="M427.15,200.27c19.17-1.58,47.81-6.77,59.31,13.62,5.27,9.35,23.44,4.63,17.22-6.41-6.79-12-19.21-20-32.42-23.33-16.13-4.1-32.57-2.08-48.91-.73-4.72.39-8.45,4.81-7.13,9.53,1.41,5.05,7,7.72,11.93,7.32Z"/><path class="cls-1" d="M523.31,240.42c4.24,10.24,8.55,20.64,10.58,31.6,2.18,11.84,1,23.59-2.35,35.1a227.45,227.45,0,0,1-11.77,31.21c-4.27,9.2-10.95,18.75-21.66,20.69-6.47,1.17,2.12,18.87,7.52,17.89,11.86-2.14,19.63-10.83,24.75-21.31a205.4,205.4,0,0,0,13.44-36.08,86.57,86.57,0,0,0,1.88-38.9c-2.54-13.67-7.59-26.64-12.88-39.43-1.2-2.89-4.66-9.51-8.52-9.33s-1.77,6.66-1,8.56Z"/><path class="cls-1" d="M481.85,393.21A118.55,118.55,0,0,0,529,316.74c1-5.85-12.88-19.41-14.38-10.68-4.89,28.65-21.62,54.47-45.1,71.4-5.2,3.74,6.87,19.68,12.33,15.75Z"/><path class="cls-2" d="M549.65,288.36c-.28,45.77-28.79,87.92-71.52,104.67-43.3,17-93.11,5-122-31.85-28.26-36.06-31.28-87.31-7.85-126.62,23.35-39.16,69.64-61.14,114.75-53.39,51.27,8.81,86.31,56.32,86.62,107.19,0,2.27,9,5.58,9,3.63-.3-49-32.21-91.74-77.53-109.2-45.54-17.54-98.18-5.89-130.28,31.4s-36,92.48-10.15,134.21c25.2,40.64,75.3,63.46,122.46,56,47.95-7.65,86.83-46.68,94.18-94.68A121.7,121.7,0,0,0,558.61,292C558.62,289.74,549.66,286.38,549.65,288.36Z"/><path class="cls-2" d="M151.91,403.19c15.17,8.25,32.87,11.15,49.79,13.29,26.24,3.32,52.85,3.69,79.26,3.11,33.56-.73,66.76-4.06,100.15-7.14l35.42-3.26c3.62-.34,7.47-2.27,8.81-5.91,1.06-2.88-.55-6.4-4.08-6.08l-76.12,7c-41.65,3.84-83.92,5.36-125.63,1.67-18.87-1.67-40.17-3.82-57.12-13-5.8-3.15-16.9,6.85-10.48,10.34Z"/><path class="cls-2" d="M647,13.59A13.43,13.43,0,0,1,639,25.64c-7.48,3.13-14.47-2.63-14.46-10.3A13.26,13.26,0,0,1,632,3.57c7.94-3.71,14.65,2.1,15,10,.06,1.29,4.57,2.94,4.51,1.75-.91-18.13-31.64-22-31.54-1.75.08,18.35,30.53,21.78,31.54,1.75C651.62,14.11,647.1,12.29,647,13.59Z"/><path class="cls-1" d="M914.23,155.78l.57,2.25a7.63,7.63,0,0,0,1.77,3.16,7.29,7.29,0,0,0,3,2.09c.75.22,1.81.44,2.42-.21a2.51,2.51,0,0,0,.46-2.39l-.56-2.25a7.65,7.65,0,0,0-1.78-3.16,7.29,7.29,0,0,0-3-2.09c-.75-.22-1.81-.44-2.42.21a2.51,2.51,0,0,0-.46,2.39Z"/></g></g></svg>